<?xml version="1.0" encoding="UTF-8" ?>
<svg version="1.1" width="15" height="16" xmlns="http://www.w3.org/2000/svg" shape-rendering="crispEdges">
<rect x="2" y="0" width="1" height="1" fill="#000000" opacity="0.027451" />
<rect x="3" y="0" width="1" height="1" fill="#000000" opacity="0.301961" />
<rect x="4" y="0" width="1" height="1" fill="#000000" opacity="0.513725" />
<rect x="5" y="0" width="1" height="1" fill="#000000" opacity="0.717647" />
<rect x="6" y="0" width="3" height="1" fill="#000000" opacity="0.752941" />
<rect x="9" y="0" width="1" height="1" fill="#000000" opacity="0.741176" />
<rect x="10" y="0" width="1" height="1" fill="#000000" opacity="0.549020" />
<rect x="11" y="0" width="1" height="1" fill="#000000" opacity="0.345098" />
<rect x="12" y="0" width="1" height="1" fill="#000000" opacity="0.074510" />
<rect x="0" y="1" width="1" height="1" fill="#000000" opacity="0.098039" />
<rect x="1" y="1" width="1" height="1" fill="#000000" opacity="0.705882" />
<rect x="2" y="1" width="1" height="1" fill="#0C0D0D" />
<rect x="3" y="1" width="1" height="1" fill="#444A4C" />
<rect x="4" y="1" width="1" height="1" fill="#6F797D" />
<rect x="5" y="1" width="1" height="1" fill="#859094" />
<rect x="6" y="1" width="4" height="1" fill="#859195" />
<rect x="10" y="1" width="1" height="1" fill="#788386" />
<rect x="11" y="1" width="1" height="1" fill="#4D5557" />
<rect x="12" y="1" width="1" height="1" fill="#161819" />
<rect x="13" y="1" width="1" height="1" fill="#000000" opacity="0.819608" />
<rect x="14" y="1" width="1" height="1" fill="#000000" opacity="0.196078" />
<rect x="0" y="2" width="1" height="1" fill="#000000" opacity="0.600000" />
<rect x="1" y="2" width="1" height="1" fill="#575F62" />
<rect x="2" y="2" width="1" height="1" fill="#99A6AA" />
<rect x="3" y="2" width="1" height="1" fill="#8C9B9F" />
<rect x="4" y="2" width="1" height="1" fill="#7B8A8E" />
<rect x="5" y="2" width="1" height="1" fill="#78878C" />
<rect x="6" y="2" width="1" height="1" fill="#7F8E93" />
<rect x="7" y="2" width="1" height="1" fill="#707F84" />
<rect x="8" y="2" width="1" height="1" fill="#7B8A8F" />
<rect x="9" y="2" width="1" height="1" fill="#7C8B90" />
<rect x="10" y="2" width="1" height="1" fill="#77868A" />
<rect x="11" y="2" width="1" height="2" fill="#89979B" />
<rect x="12" y="2" width="1" height="1" fill="#95A3A8" />
<rect x="13" y="2" width="1" height="1" fill="#798488" />
<rect x="14" y="2" width="1" height="1" fill="#000000" opacity="0.807843" />
<rect x="0" y="3" width="1" height="1" fill="#000000" opacity="0.741176" />
<rect x="1" y="3" width="1" height="1" fill="#859396" />
<rect x="2" y="3" width="1" height="1" fill="#8B999E" />
<rect x="3" y="3" width="1" height="1" fill="#7F8C90" />
<rect x="4" y="3" width="1" height="1" fill="#869297" />
<rect x="5" y="3" width="1" height="1" fill="#89969B" />
<rect x="6" y="3" width="1" height="1" fill="#778387" />
<rect x="7" y="3" width="1" height="1" fill="#7D898D" />
<rect x="8" y="3" width="1" height="1" fill="#869397" />
<rect x="9" y="3" width="1" height="1" fill="#7B878C" />
<rect x="10" y="3" width="1" height="1" fill="#808D91" />
<rect x="12" y="3" width="1" height="1" fill="#828F94" />
<rect x="13" y="3" width="1" height="1" fill="#96A5A8" />
<rect x="14" y="3" width="1" height="1" fill="#000000" opacity="0.964706" />
<rect x="0" y="4" width="1" height="1" fill="#000000" opacity="0.525490" />
<rect x="1" y="4" width="1" height="1" fill="#272B2D" />
<rect x="2" y="4" width="1" height="1" fill="#7F8E92" />
<rect x="3" y="4" width="1" height="1" fill="#8D9BA0" />
<rect x="4" y="4" width="1" height="1" fill="#98A6A9" />
<rect x="5" y="4" width="1" height="1" fill="#9CAAAE" />
<rect x="6" y="4" width="1" height="1" fill="#8F9CA0" />
<rect x="7" y="4" width="1" height="1" fill="#919EA2" />
<rect x="8" y="4" width="1" height="1" fill="#8E9CA0" />
<rect x="9" y="4" width="1" height="1" fill="#99A7AC" />
<rect x="10" y="4" width="1" height="1" fill="#9BA9AD" />
<rect x="11" y="4" width="1" height="1" fill="#909DA1" />
<rect x="12" y="4" width="1" height="1" fill="#839297" />
<rect x="13" y="4" width="1" height="1" fill="#454E52" />
<rect x="14" y="4" width="1" height="1" fill="#000000" opacity="0.737255" />
<rect x="0" y="5" width="1" height="1" fill="#000000" opacity="0.019608" />
<rect x="1" y="5" width="1" height="1" fill="#000000" opacity="0.866667" />
<rect x="2" y="5" width="1" height="1" fill="#7F8B8E" />
<rect x="3" y="5" width="1" height="1" fill="#667278" />
<rect x="4" y="5" width="1" height="1" fill="#556166" />
<rect x="5" y="5" width="1" height="1" fill="#5F6D72" />
<rect x="6" y="5" width="1" height="1" fill="#6B797E" />
<rect x="7" y="5" width="1" height="1" fill="#6D7D81" />
<rect x="8" y="5" width="1" height="1" fill="#6B787E" />
<rect x="9" y="5" width="1" height="1" fill="#647277" />
<rect x="10" y="5" width="1" height="1" fill="#576368" />
<rect x="11" y="5" width="1" height="1" fill="#5D6A6E" />
<rect x="12" y="5" width="1" height="1" fill="#89969B" />
<rect x="13" y="5" width="1" height="1" fill="#0B0C0C" />
<rect x="14" y="5" width="1" height="1" fill="#000000" opacity="0.117647" />
<rect x="1" y="6" width="1" height="1" fill="#000000" opacity="0.737255" />
<rect x="2" y="6" width="1" height="1" fill="#5F686B" />
<rect x="3" y="6" width="1" height="1" fill="#626D71" />
<rect x="4" y="6" width="1" height="1" fill="#707C81" />
<rect x="5" y="6" width="1" height="1" fill="#727E83" />
<rect x="6" y="6" width="1" height="1" fill="#657175" />
<rect x="7" y="6" width="1" height="1" fill="#6F7B7F" />
<rect x="8" y="6" width="1" height="1" fill="#6F7B80" />
<rect x="9" y="6" width="1" height="1" fill="#677377" />
<rect x="10" y="6" width="1" height="1" fill="#707C80" />
<rect x="11" y="6" width="1" height="1" fill="#6E7A7E" />
<rect x="12" y="6" width="1" height="1" fill="#6A7579" />
<rect x="13" y="6" width="1" height="1" fill="#000000" opacity="0.984314" />
<rect x="1" y="7" width="1" height="1" fill="#000000" opacity="0.639216" />
<rect x="2" y="7" width="1" height="1" fill="#5B6467" />
<rect x="3" y="7" width="1" height="1" fill="#5A656A" />
<rect x="4" y="7" width="1" height="1" fill="#839194" />
<rect x="5" y="7" width="1" height="1" fill="#6F7B7F" />
<rect x="6" y="7" width="1" height="1" fill="#5D686D" />
<rect x="7" y="7" width="1" height="1" fill="#859296" />
<rect x="8" y="7" width="1" height="1" fill="#6C787C" />
<rect x="9" y="7" width="1" height="1" fill="#5F6B70" />
<rect x="10" y="7" width="1" height="1" fill="#859196" />
<rect x="11" y="7" width="1" height="1" fill="#677378" />
<rect x="12" y="7" width="1" height="1" fill="#656F73" />
<rect x="13" y="7" width="1" height="1" fill="#000000" opacity="0.858824" />
<rect x="1" y="8" width="1" height="1" fill="#000000" opacity="0.537255" />
<rect x="2" y="8" width="1" height="1" fill="#626C6F" />
<rect x="3" y="8" width="1" height="1" fill="#889498" />
<rect x="4" y="8" width="1" height="1" fill="#4A5459" />
<rect x="5" y="8" width="1" height="1" fill="#717D82" />
<rect x="6" y="8" width="1" height="1" fill="#839194" />
<rect x="7" y="8" width="1" height="1" fill="#4A5459" />
<rect x="8" y="8" width="1" height="1" fill="#758286" />
<rect x="9" y="8" width="1" height="1" fill="#7F8C90" />
<rect x="10" y="8" width="1" height="1" fill="#4A5459" />
<rect x="11" y="8" width="1" height="1" fill="#798589" />
<rect x="12" y="8" width="1" height="1" fill="#7D898C" />
<rect x="13" y="8" width="1" height="1" fill="#000000" opacity="0.756863" />
<rect x="1" y="9" width="1" height="1" fill="#000000" opacity="0.435294" />
<rect x="2" y="9" width="1" height="1" fill="#52595B" />
<rect x="3" y="9" width="1" height="1" fill="#646F73" />
<rect x="4" y="9" width="1" height="1" fill="#758186" />
<rect x="5" y="9" width="1" height="1" fill="#778388" />
<rect x="6" y="9" width="1" height="1" fill="#677277" />
<rect x="7" y="9" width="1" height="1" fill="#737F84" />
<rect x="8" y="9" width="1" height="1" fill="#727E83" />
<rect x="9" y="9" width="1" height="1" fill="#6A7579" />
<rect x="10" y="9" width="1" height="1" fill="#748085" />
<rect x="11" y="9" width="1" height="1" fill="#707C81" />
<rect x="12" y="9" width="1" height="1" fill="#5E686B" />
<rect x="13" y="9" width="1" height="1" fill="#000000" opacity="0.654902" />
<rect x="1" y="10" width="1" height="1" fill="#000000" opacity="0.337255" />
<rect x="2" y="10" width="1" height="1" fill="#3E4345" />
<rect x="3" y="10" width="1" height="1" fill="#657074" />
<rect x="4" y="10" width="1" height="1" fill="#839194" />
<rect x="5" y="10" width="1" height="1" fill="#6F7B7F" />
<rect x="6" y="10" width="1" height="1" fill="#5D686D" />
<rect x="7" y="10" width="1" height="1" fill="#859296" />
<rect x="8" y="10" width="1" height="1" fill="#6C787C" />
<rect x="9" y="10" width="1" height="1" fill="#5F6B70" />
<rect x="10" y="10" width="1" height="1" fill="#859196" />
<rect x="11" y="10" width="1" height="1" fill="#677378" />
<rect x="12" y="10" width="1" height="1" fill="#586164" />
<rect x="13" y="10" width="1" height="1" fill="#000000" opacity="0.556863" />
<rect x="1" y="11" width="1" height="1" fill="#000000" opacity="0.235294" />
<rect x="2" y="11" width="1" height="1" fill="#292C2D" />
<rect x="3" y="11" width="1" height="1" fill="#8A979C" />
<rect x="4" y="11" width="1" height="1" fill="#4A5459" />
<rect x="5" y="11" width="1" height="1" fill="#717D81" />
<rect x="6" y="11" width="1" height="1" fill="#808B90" />
<rect x="7" y="11" width="1" height="1" fill="#4A5459" />
<rect x="8" y="11" width="1" height="1" fill="#758185" />
<rect x="9" y="11" width="1" height="1" fill="#7B878B" />
<rect x="10" y="11" width="1" height="1" fill="#4A5459" />
<rect x="11" y="11" width="1" height="1" fill="#79858A" />
<rect x="12" y="11" width="1" height="1" fill="#52595B" />
<rect x="13" y="11" width="1" height="1" fill="#000000" opacity="0.454902" />
<rect x="1" y="12" width="1" height="1" fill="#000000" opacity="0.133333" />
<rect x="2" y="12" width="1" height="1" fill="#191B1C" />
<rect x="3" y="12" width="1" height="1" fill="#768186" />
<rect x="4" y="12" width="1" height="1" fill="#6B7376" />
<rect x="5" y="12" width="1" height="1" fill="#5E6467" />
<rect x="6" y="12" width="1" height="2" fill="#434647" />
<rect x="7" y="12" width="1" height="1" fill="#636A6C" />
<rect x="8" y="12" width="1" height="1" fill="#54595A" />
<rect x="9" y="12" width="1" height="1" fill="#4E5254" />
<rect x="10" y="12" width="1" height="1" fill="#677073" />
<rect x="11" y="12" width="1" height="1" fill="#4C5559" />
<rect x="12" y="12" width="1" height="1" fill="#404648" />
<rect x="13" y="12" width="1" height="1" fill="#000000" opacity="0.352941" />
<rect x="1" y="13" width="1" height="1" fill="#000000" opacity="0.031373" />
<rect x="2" y="13" width="1" height="1" fill="#070808" />
<rect x="3" y="13" width="1" height="1" fill="#747E80" />
<rect x="4" y="13" width="1" height="1" fill="#676E70" />
<rect x="5" y="13" width="1" height="1" fill="#575D5E" />
<rect x="7" y="13" width="1" height="1" fill="#646B6D" />
<rect x="8" y="13" width="1" height="1" fill="#565B5D" />
<rect x="9" y="13" width="1" height="1" fill="#494C4D" />
<rect x="10" y="13" width="1" height="1" fill="#646B6D" />
<rect x="11" y="13" width="1" height="1" fill="#727C7E" />
<rect x="12" y="13" width="1" height="1" fill="#222526" />
<rect x="13" y="13" width="1" height="1" fill="#000000" opacity="0.247059" />
<rect x="2" y="14" width="1" height="1" fill="#000000" opacity="0.596078" />
<rect x="3" y="14" width="1" height="1" fill="#242829" />
<rect x="4" y="14" width="1" height="1" fill="#5F686A" />
<rect x="5" y="14" width="1" height="1" fill="#818C8F" />
<rect x="6" y="14" width="1" height="1" fill="#899598" />
<rect x="7" y="14" width="1" height="1" fill="#666E71" />
<rect x="8" y="14" width="1" height="1" fill="#838E92" />
<rect x="9" y="14" width="1" height="1" fill="#889598" />
<rect x="10" y="14" width="1" height="1" fill="#61696B" />
<rect x="11" y="14" width="1" height="1" fill="#363B3D" />
<rect x="12" y="14" width="1" height="1" fill="#000000" opacity="0.878431" />
<rect x="13" y="14" width="1" height="1" fill="#000000" opacity="0.058824" />
<rect x="2" y="15" width="1" height="1" fill="#000000" opacity="0.007843" />
<rect x="3" y="15" width="1" height="1" fill="#000000" opacity="0.419608" />
<rect x="4" y="15" width="1" height="1" fill="#000000" opacity="0.749020" />
<rect x="5" y="15" width="1" height="1" fill="#000000" opacity="0.756863" />
<rect x="6" y="15" width="1" height="1" fill="#000000" opacity="0.945098" />
<rect x="7" y="15" width="1" height="1" fill="#000000" />
<rect x="8" y="15" width="1" height="1" fill="#000000" opacity="0.964706" />
<rect x="9" y="15" width="1" height="1" fill="#000000" opacity="0.764706" />
<rect x="10" y="15" width="1" height="1" fill="#000000" opacity="0.749020" />
<rect x="11" y="15" width="1" height="1" fill="#000000" opacity="0.498039" />
<rect x="12" y="15" width="1" height="1" fill="#000000" opacity="0.070588" />
</svg>