<?xml version="1.0" encoding="UTF-8" ?>
<svg version="1.1" width="13" height="16" xmlns="http://www.w3.org/2000/svg" shape-rendering="crispEdges">
<rect x="4" y="0" width="1" height="1" fill="#000000" opacity="0.235294" />
<rect x="5" y="0" width="1" height="1" fill="#000000" opacity="0.752941" />
<rect x="6" y="0" width="1" height="1" fill="#000000" opacity="0.733333" />
<rect x="7" y="0" width="1" height="1" fill="#000000" opacity="0.431373" />
<rect x="8" y="0" width="1" height="1" fill="#000000" opacity="0.031373" />
<rect x="2" y="1" width="1" height="1" fill="#000000" opacity="0.043137" />
<rect x="3" y="1" width="1" height="1" fill="#000000" opacity="0.666667" />
<rect x="4" y="1" width="1" height="1" fill="#000000" opacity="0.831373" />
<rect x="5" y="1" width="1" height="1" fill="#411A03" />
<rect x="6" y="1" width="1" height="1" fill="#993D07" />
<rect x="7" y="1" width="1" height="1" fill="#5E2504" />
<rect x="8" y="1" width="1" height="1" fill="#030100" opacity="0.788235" />
<rect x="9" y="1" width="1" height="1" fill="#000000" opacity="0.062745" />
<rect x="2" y="2" width="1" height="1" fill="#000000" opacity="0.658824" />
<rect x="3" y="2" width="1" height="1" fill="#672905" />
<rect x="4" y="2" width="1" height="1" fill="#230E01" />
<rect x="5" y="2" width="1" height="1" fill="#793005" />
<rect x="6" y="2" width="2" height="7" fill="#F7630C" />
<rect x="8" y="2" width="1" height="1" fill="#A44107" />
<rect x="9" y="2" width="1" height="1" fill="#000000" opacity="0.756863" />
<rect x="10" y="2" width="1" height="1" fill="#000000" opacity="0.003922" />
<rect x="2" y="3" width="1" height="1" fill="#000000" opacity="0.772549" />
<rect x="3" y="3" width="1" height="1" fill="#B44808" />
<rect x="4" y="3" width="1" height="1" fill="#1C0B01" />
<rect x="5" y="3" width="1" height="1" fill="#D3540A" />
<rect x="8" y="3" width="1" height="8" fill="#F7630C" />
<rect x="9" y="3" width="1" height="1" fill="#3D1803" />
<rect x="10" y="3" width="1" height="1" fill="#000000" opacity="0.254902" />
<rect x="2" y="4" width="1" height="1" fill="#000000" opacity="0.768627" />
<rect x="3" y="4" width="1" height="1" fill="#0C0500" />
<rect x="4" y="4" width="1" height="1" fill="#5B2404" />
<rect x="5" y="4" width="1" height="5" fill="#F7630C" />
<rect x="9" y="4" width="1" height="1" fill="#7E3206" />
<rect x="10" y="4" width="1" height="1" fill="#000000" opacity="0.501961" />
<rect x="2" y="5" width="1" height="1" fill="#000000" opacity="0.600000" />
<rect x="3" y="5" width="1" height="1" fill="#260F01" />
<rect x="4" y="5" width="1" height="1" fill="#E65C0B" />
<rect x="9" y="5" width="1" height="1" fill="#913A07" />
<rect x="10" y="5" width="1" height="1" fill="#000000" opacity="0.666667" />
<rect x="11" y="5" width="1" height="1" fill="#000000" opacity="0.250980" />
<rect x="12" y="5" width="1" height="1" fill="#000000" opacity="0.133333" />
<rect x="1" y="6" width="1" height="1" fill="#000000" opacity="0.243137" />
<rect x="2" y="6" width="1" height="1" fill="#270F01" />
<rect x="3" y="6" width="1" height="1" fill="#DD580A" />
<rect x="4" y="6" width="1" height="3" fill="#F7630C" />
<rect x="9" y="6" width="1" height="1" fill="#933B07" />
<rect x="10" y="6" width="1" height="1" fill="#0F0600" />
<rect x="11" y="6" width="1" height="1" fill="#341402" />
<rect x="12" y="6" width="1" height="1" fill="#000000" opacity="0.537255" />
<rect x="1" y="7" width="1" height="1" fill="#000000" opacity="0.705882" />
<rect x="2" y="7" width="1" height="1" fill="#A34107" />
<rect x="3" y="7" width="1" height="4" fill="#F7630C" />
<rect x="9" y="7" width="1" height="1" fill="#D2540A" />
<rect x="10" y="7" width="1" height="1" fill="#EB5E0B" />
<rect x="11" y="7" width="1" height="1" fill="#883606" />
<rect x="12" y="7" width="1" height="1" fill="#000000" opacity="0.541176" />
<rect x="0" y="8" width="1" height="1" fill="#000000" opacity="0.043137" />
<rect x="1" y="8" width="1" height="1" fill="#100600" opacity="0.980392" />
<rect x="2" y="8" width="1" height="1" fill="#F3610B" />
<rect x="9" y="8" width="2" height="3" fill="#F7630C" />
<rect x="11" y="8" width="1" height="2" fill="#893606" />
<rect x="12" y="8" width="1" height="1" fill="#000000" opacity="0.537255" />
<rect x="0" y="9" width="1" height="1" fill="#000000" opacity="0.207843" />
<rect x="1" y="9" width="1" height="1" fill="#3B1702" />
<rect x="2" y="9" width="1" height="2" fill="#F7630C" />
<rect x="4" y="9" width="1" height="1" fill="#F7630B" />
<rect x="5" y="9" width="1" height="1" fill="#FBCA02" />
<rect x="6" y="9" width="1" height="1" fill="#FAB304" />
<rect x="7" y="9" width="1" height="1" fill="#F7670B" />
<rect x="12" y="9" width="1" height="1" fill="#000000" opacity="0.541176" />
<rect x="0" y="10" width="1" height="1" fill="#000000" opacity="0.211765" />
<rect x="1" y="10" width="1" height="1" fill="#381602" />
<rect x="4" y="10" width="1" height="1" fill="#F99407" />
<rect x="5" y="10" width="2" height="2" fill="#FCE100" />
<rect x="7" y="10" width="1" height="1" fill="#FAB104" />
<rect x="11" y="10" width="1" height="1" fill="#7D3206" />
<rect x="12" y="10" width="1" height="1" fill="#000000" opacity="0.486275" />
<rect x="0" y="11" width="1" height="1" fill="#000000" opacity="0.047059" />
<rect x="1" y="11" width="1" height="1" fill="#100600" opacity="0.980392" />
<rect x="2" y="11" width="1" height="1" fill="#F3610B" />
<rect x="3" y="11" width="1" height="1" fill="#F76E0A" />
<rect x="4" y="11" width="1" height="1" fill="#FCDC00" />
<rect x="7" y="11" width="1" height="2" fill="#FCE100" />
<rect x="8" y="11" width="1" height="1" fill="#F8760A" />
<rect x="9" y="11" width="1" height="1" fill="#F98209" />
<rect x="10" y="11" width="1" height="1" fill="#F7630C" />
<rect x="11" y="11" width="1" height="1" fill="#502003" />
<rect x="12" y="11" width="1" height="1" fill="#000000" opacity="0.301961" />
<rect x="1" y="12" width="1" height="1" fill="#000000" opacity="0.666667" />
<rect x="2" y="12" width="1" height="1" fill="#963C07" />
<rect x="3" y="12" width="1" height="1" fill="#F88908" />
<rect x="4" y="12" width="1" height="2" fill="#FCE100" />
<rect x="5" y="12" width="1" height="1" fill="#FCE315" />
<rect x="6" y="12" width="1" height="1" fill="#FDEA52" />
<rect x="8" y="12" width="1" height="1" fill="#FCE100" />
<rect x="9" y="12" width="1" height="1" fill="#FAAE04" />
<rect x="10" y="12" width="1" height="1" fill="#D9570A" />
<rect x="11" y="12" width="1" height="1" fill="#050200" opacity="0.921569" />
<rect x="12" y="12" width="1" height="1" fill="#000000" opacity="0.023529" />
<rect x="1" y="13" width="1" height="1" fill="#000000" opacity="0.180392" />
<rect x="2" y="13" width="1" height="1" fill="#100600" opacity="0.988235" />
<rect x="3" y="13" width="1" height="1" fill="#DF7F06" />
<rect x="5" y="13" width="1" height="1" fill="#FEF5AC" />
<rect x="6" y="13" width="1" height="1" fill="#FEF5A8" />
<rect x="7" y="13" width="1" height="1" fill="#FDE94A" />
<rect x="8" y="13" width="1" height="1" fill="#FCE20F" />
<rect x="9" y="13" width="1" height="1" fill="#F6AC04" />
<rect x="10" y="13" width="1" height="1" fill="#391702" />
<rect x="11" y="13" width="1" height="1" fill="#000000" opacity="0.439216" />
<rect x="2" y="14" width="1" height="1" fill="#000000" opacity="0.274510" />
<rect x="3" y="14" width="1" height="1" fill="#070700" opacity="0.952941" />
<rect x="4" y="14" width="1" height="1" fill="#998000" />
<rect x="5" y="14" width="1" height="1" fill="#F2EABD" />
<rect x="6" y="14" width="1" height="1" fill="#FFFFFF" />
<rect x="7" y="14" width="1" height="1" fill="#FCFBF2" />
<rect x="8" y="14" width="1" height="1" fill="#B1A016" />
<rect x="9" y="14" width="1" height="1" fill="#201D00" />
<rect x="10" y="14" width="1" height="1" fill="#000000" opacity="0.513725" />
<rect x="3" y="15" width="1" height="1" fill="#000000" opacity="0.137255" />
<rect x="4" y="15" width="1" height="1" fill="#000000" opacity="0.552941" />
<rect x="5" y="15" width="1" height="1" fill="#000000" opacity="0.886275" />
<rect x="6" y="15" width="1" height="1" fill="#000000" />
<rect x="7" y="15" width="1" height="1" fill="#000000" opacity="0.956863" />
<rect x="8" y="15" width="1" height="1" fill="#000000" opacity="0.647059" />
<rect x="9" y="15" width="1" height="1" fill="#000000" opacity="0.250980" />
</svg>