<?xml version="1.0" encoding="UTF-8" ?>
<svg version="1.1" width="16" height="16" xmlns="http://www.w3.org/2000/svg" shape-rendering="crispEdges">
<rect x="5" y="0" width="1" height="1" fill="#000000" opacity="0.043137" />
<rect x="6" y="0" width="1" height="1" fill="#000000" opacity="0.333333" />
<rect x="7" y="0" width="1" height="1" fill="#000000" opacity="0.137255" />
<rect x="9" y="0" width="1" height="1" fill="#000000" opacity="0.368627" />
<rect x="10" y="0" width="1" height="1" fill="#000000" opacity="0.160784" />
<rect x="3" y="1" width="1" height="1" fill="#000000" opacity="0.098039" />
<rect x="4" y="1" width="1" height="1" fill="#000000" opacity="0.725490" />
<rect x="5" y="1" width="1" height="1" fill="#010101" opacity="0.984314" />
<rect x="6" y="1" width="1" height="1" fill="#222222" />
<rect x="7" y="1" width="1" height="1" fill="#000000" opacity="0.847059" />
<rect x="8" y="1" width="1" height="1" fill="#000000" opacity="0.529412" />
<rect x="9" y="1" width="1" height="1" fill="#181818" />
<rect x="10" y="1" width="1" height="1" fill="#0C0C0C" />
<rect x="11" y="1" width="1" height="1" fill="#000000" opacity="0.858824" />
<rect x="12" y="1" width="1" height="1" fill="#000000" opacity="0.376471" />
<rect x="3" y="2" width="1" height="1" fill="#000000" opacity="0.196078" />
<rect x="4" y="2" width="1" height="1" fill="#272727" />
<rect x="5" y="2" width="1" height="1" fill="#D5D5D5" />
<rect x="6" y="2" width="1" height="2" fill="#E5E5E5" />
<rect x="7" y="2" width="1" height="1" fill="#767676" />
<rect x="8" y="2" width="1" height="1" fill="#434343" />
<rect x="9" y="2" width="1" height="1" fill="#CFCFCF" />
<rect x="10" y="2" width="1" height="1" fill="#E3E3E3" />
<rect x="11" y="2" width="1" height="1" fill="#7E7E7E" />
<rect x="12" y="2" width="1" height="1" fill="#000000" opacity="0.647059" />
<rect x="1" y="3" width="1" height="1" fill="#000000" opacity="0.117647" />
<rect x="2" y="3" width="1" height="1" fill="#000000" opacity="0.250980" />
<rect x="3" y="3" width="1" height="1" fill="#000000" opacity="0.501961" />
<rect x="4" y="3" width="1" height="1" fill="#393939" />
<rect x="5" y="3" width="1" height="1" fill="#E5E5E5" />
<rect x="7" y="3" width="4" height="1" fill="#E5E5E5" />
<rect x="11" y="3" width="1" height="1" fill="#9F9F9F" />
<rect x="12" y="3" width="1" height="1" fill="#000000" opacity="0.843137" />
<rect x="13" y="3" width="1" height="1" fill="#000000" opacity="0.250980" />
<rect x="14" y="3" width="1" height="1" fill="#000000" opacity="0.227451" />
<rect x="1" y="4" width="1" height="1" fill="#000000" opacity="0.627451" />
<rect x="2" y="4" width="1" height="1" fill="#292929" />
<rect x="3" y="4" width="1" height="1" fill="#3D3D3D" />
<rect x="4" y="4" width="1" height="1" fill="#C4C4C4" />
<rect x="5" y="4" width="1" height="1" fill="#E2E2E2" />
<rect x="6" y="4" width="1" height="1" fill="#B6B6B6" />
<rect x="7" y="4" width="1" height="1" fill="#ABABAB" />
<rect x="8" y="4" width="1" height="1" fill="#ACACAC" />
<rect x="9" y="4" width="1" height="1" fill="#ABABAB" />
<rect x="10" y="4" width="1" height="1" fill="#D2D2D2" />
<rect x="11" y="4" width="1" height="1" fill="#E5E5E5" />
<rect x="12" y="4" width="1" height="1" fill="#686868" />
<rect x="13" y="4" width="1" height="1" fill="#3A3A3A" />
<rect x="14" y="4" width="1" height="1" fill="#080808" />
<rect x="15" y="4" width="1" height="1" fill="#000000" opacity="0.066667" />
<rect x="1" y="5" width="1" height="1" fill="#000000" opacity="0.878431" />
<rect x="2" y="5" width="1" height="1" fill="#CBCBCB" />
<rect x="3" y="5" width="1" height="6" fill="#E5E5E5" />
<rect x="4" y="5" width="1" height="1" fill="#E2E2E2" />
<rect x="5" y="5" width="1" height="1" fill="#9A9A9A" />
<rect x="6" y="5" width="1" height="1" fill="#CECECE" />
<rect x="7" y="5" width="2" height="1" fill="#D2D2D2" />
<rect x="9" y="5" width="1" height="1" fill="#D3D3D3" />
<rect x="10" y="5" width="1" height="1" fill="#A5A5A5" />
<rect x="11" y="5" width="1" height="1" fill="#C8C8C8" />
<rect x="12" y="5" width="2" height="2" fill="#E5E5E5" />
<rect x="14" y="5" width="1" height="1" fill="#4C4C4C" />
<rect x="15" y="5" width="1" height="1" fill="#000000" opacity="0.321569" />
<rect x="0" y="6" width="1" height="1" fill="#000000" opacity="0.125490" />
<rect x="1" y="6" width="1" height="1" fill="#0E0E0E" />
<rect x="2" y="6" width="1" height="1" fill="#DBDBDB" />
<rect x="4" y="6" width="1" height="1" fill="#BBBBBB" />
<rect x="5" y="6" width="1" height="1" fill="#CBCBCB" />
<rect x="6" y="6" width="1" height="1" fill="#CCCCCC" />
<rect x="7" y="6" width="1" height="1" fill="#AFAFAF" />
<rect x="8" y="6" width="1" height="1" fill="#838383" />
<rect x="9" y="6" width="1" height="1" fill="#CCCCCC" />
<rect x="10" y="6" width="1" height="1" fill="#D4D4D4" />
<rect x="11" y="6" width="1" height="1" fill="#A2A2A2" />
<rect x="14" y="6" width="1" height="1" fill="#676767" />
<rect x="15" y="6" width="1" height="1" fill="#000000" opacity="0.572549" />
<rect x="0" y="7" width="1" height="1" fill="#000000" opacity="0.027451" />
<rect x="1" y="7" width="1" height="1" fill="#000000" opacity="0.701961" />
<rect x="2" y="7" width="1" height="2" fill="#454545" />
<rect x="4" y="7" width="1" height="1" fill="#ACACAC" />
<rect x="5" y="7" width="1" height="1" fill="#D5D5D5" />
<rect x="6" y="7" width="1" height="1" fill="#B4B4B4" />
<rect x="7" y="7" width="1" height="1" fill="#030303" />
<rect x="8" y="7" width="1" height="2" fill="#000000" />
<rect x="9" y="7" width="1" height="1" fill="#5F5F5F" />
<rect x="10" y="7" width="1" height="2" fill="#CCCCCC" />
<rect x="11" y="7" width="1" height="1" fill="#B6B6B6" />
<rect x="12" y="7" width="1" height="1" fill="#DCDCDC" />
<rect x="13" y="7" width="1" height="2" fill="#ADADAD" />
<rect x="14" y="7" width="1" height="1" fill="#010101" opacity="0.937255" />
<rect x="15" y="7" width="1" height="1" fill="#000000" opacity="0.211765" />
<rect x="1" y="8" width="1" height="1" fill="#000000" opacity="0.470588" />
<rect x="4" y="8" width="1" height="1" fill="#AEAEAE" />
<rect x="5" y="8" width="1" height="1" fill="#D4D4D4" />
<rect x="6" y="8" width="1" height="1" fill="#A9A9A9" />
<rect x="7" y="8" width="1" height="1" fill="#000000" />
<rect x="9" y="8" width="1" height="1" fill="#515151" />
<rect x="11" y="8" width="1" height="1" fill="#BBBBBB" />
<rect x="12" y="8" width="1" height="1" fill="#DADADA" />
<rect x="14" y="8" width="1" height="1" fill="#010101" opacity="0.835294" />
<rect x="15" y="8" width="1" height="1" fill="#000000" opacity="0.074510" />
<rect x="0" y="9" width="1" height="1" fill="#000000" opacity="0.145098" />
<rect x="1" y="9" width="1" height="1" fill="#0F0F0F" />
<rect x="2" y="9" width="1" height="1" fill="#DBDBDB" />
<rect x="4" y="9" width="1" height="1" fill="#BABABA" />
<rect x="5" y="9" width="1" height="1" fill="#D5D5D5" />
<rect x="6" y="9" width="1" height="1" fill="#CCCCCC" />
<rect x="7" y="9" width="1" height="1" fill="#787878" />
<rect x="8" y="9" width="1" height="1" fill="#666666" />
<rect x="9" y="9" width="1" height="1" fill="#B2B2B2" />
<rect x="10" y="9" width="1" height="1" fill="#D1D1D1" />
<rect x="11" y="9" width="1" height="1" fill="#AEAEAE" />
<rect x="12" y="9" width="2" height="2" fill="#E5E5E5" />
<rect x="14" y="9" width="1" height="1" fill="#696969" />
<rect x="15" y="9" width="1" height="1" fill="#000000" opacity="0.588235" />
<rect x="0" y="10" width="1" height="1" fill="#000000" opacity="0.003922" />
<rect x="1" y="10" width="1" height="1" fill="#000000" opacity="0.952941" />
<rect x="2" y="10" width="1" height="1" fill="#D4D4D4" />
<rect x="4" y="10" width="1" height="1" fill="#E2E2E2" />
<rect x="5" y="10" width="1" height="1" fill="#A9A9A9" />
<rect x="6" y="10" width="1" height="1" fill="#D7D7D7" />
<rect x="7" y="10" width="1" height="1" fill="#CECECE" />
<rect x="8" y="10" width="1" height="1" fill="#CCCCCC" />
<rect x="9" y="10" width="1" height="1" fill="#D4D4D4" />
<rect x="10" y="10" width="1" height="1" fill="#C0C0C0" />
<rect x="11" y="10" width="1" height="1" fill="#C8C8C8" />
<rect x="14" y="10" width="1" height="1" fill="#545454" />
<rect x="15" y="10" width="1" height="1" fill="#000000" opacity="0.388235" />
<rect x="1" y="11" width="1" height="1" fill="#000000" opacity="0.690196" />
<rect x="2" y="11" width="1" height="1" fill="#545454" />
<rect x="3" y="11" width="1" height="1" fill="#767676" />
<rect x="4" y="11" width="1" height="1" fill="#DCDCDC" />
<rect x="5" y="11" width="1" height="1" fill="#E2E2E2" />
<rect x="6" y="11" width="1" height="1" fill="#AEAEAE" />
<rect x="7" y="11" width="1" height="1" fill="#AAAAAA" />
<rect x="8" y="11" width="1" height="1" fill="#ACACAC" />
<rect x="9" y="11" width="1" height="1" fill="#A6A6A6" />
<rect x="10" y="11" width="1" height="1" fill="#CECECE" />
<rect x="11" y="11" width="1" height="1" fill="#E5E5E5" />
<rect x="12" y="11" width="1" height="1" fill="#A1A1A1" />
<rect x="13" y="11" width="1" height="1" fill="#737373" />
<rect x="14" y="11" width="1" height="1" fill="#141414" />
<rect x="15" y="11" width="1" height="1" fill="#000000" opacity="0.137255" />
<rect x="1" y="12" width="1" height="1" fill="#000000" opacity="0.250980" />
<rect x="2" y="12" width="1" height="1" fill="#000000" opacity="0.501961" />
<rect x="3" y="12" width="1" height="1" fill="#000000" opacity="0.701961" />
<rect x="4" y="12" width="1" height="1" fill="#4F4F4F" />
<rect x="5" y="12" width="6" height="1" fill="#E5E5E5" />
<rect x="11" y="12" width="1" height="1" fill="#B4B4B4" />
<rect x="12" y="12" width="1" height="1" fill="#020202" opacity="0.937255" />
<rect x="13" y="12" width="1" height="1" fill="#000000" opacity="0.501961" />
<rect x="14" y="12" width="1" height="1" fill="#000000" opacity="0.486275" />
<rect x="3" y="13" width="1" height="1" fill="#000000" opacity="0.196078" />
<rect x="4" y="13" width="1" height="1" fill="#323232" />
<rect x="5" y="13" width="2" height="1" fill="#E5E5E5" />
<rect x="7" y="13" width="1" height="1" fill="#AAAAAA" />
<rect x="8" y="13" width="1" height="1" fill="#7C7C7C" />
<rect x="9" y="13" width="1" height="1" fill="#E2E2E2" />
<rect x="10" y="13" width="1" height="1" fill="#E5E5E5" />
<rect x="11" y="13" width="1" height="1" fill="#989898" />
<rect x="12" y="13" width="1" height="1" fill="#000000" opacity="0.647059" />
<rect x="3" y="14" width="1" height="1" fill="#000000" opacity="0.145098" />
<rect x="4" y="14" width="1" height="1" fill="#010101" opacity="0.921569" />
<rect x="5" y="14" width="1" height="1" fill="#2A2A2A" />
<rect x="6" y="14" width="1" height="1" fill="#5C5C5C" />
<rect x="7" y="14" width="1" height="1" fill="#060606" opacity="0.929412" />
<rect x="8" y="14" width="1" height="1" fill="#000000" opacity="0.713725" />
<rect x="9" y="14" width="1" height="1" fill="#3E3E3E" />
<rect x="10" y="14" width="1" height="1" fill="#434343" />
<rect x="11" y="14" width="1" height="1" fill="#0C0C0C" opacity="0.984314" />
<rect x="12" y="14" width="1" height="1" fill="#000000" opacity="0.521569" />
<rect x="5" y="15" width="1" height="1" fill="#000000" opacity="0.156863" />
<rect x="6" y="15" width="1" height="1" fill="#000000" opacity="0.380392" />
<rect x="7" y="15" width="1" height="1" fill="#000000" opacity="0.160784" />
<rect x="8" y="15" width="1" height="1" fill="#000000" opacity="0.003922" />
<rect x="9" y="15" width="1" height="1" fill="#000000" opacity="0.400000" />
<rect x="10" y="15" width="1" height="1" fill="#000000" opacity="0.247059" />
<rect x="11" y="15" width="1" height="1" fill="#000000" opacity="0.027451" />
</svg>